<?xml version="1.0" encoding="UTF-8" standalone="no"?>
<svg
   width="297"
   height="210"
   viewBox="0 0 297 210"
   version="1.1"
   id="svg352"
   inkscape:version="1.2 (dc2aedaf03, 2022-05-15)"
   sodipodi:docname="IEEE Logo Only.svg"
   xml:space="preserve"
   inkscape:export-filename="Final Logo.png"
   inkscape:export-xdpi="96"
   inkscape:export-ydpi="96"
   xmlns:inkscape="http://www.inkscape.org/namespaces/inkscape"
   xmlns:sodipodi="http://sodipodi.sourceforge.net/DTD/sodipodi-0.dtd"
   xmlns="http://www.w3.org/2000/svg"
   xmlns:svg="http://www.w3.org/2000/svg"><sodipodi:namedview
     id="namedview354"
     pagecolor="#ffffff"
     bordercolor="#000000"
     borderopacity="0.25"
     inkscape:showpageshadow="2"
     inkscape:pageopacity="0.0"
     inkscape:pagecheckerboard="0"
     inkscape:deskcolor="#d1d1d1"
     inkscape:document-units="mm"
     showgrid="false"
     inkscape:zoom="3.1251122"
     inkscape:cx="133.91519"
     inkscape:cy="64.317691"
     inkscape:window-width="1920"
     inkscape:window-height="1046"
     inkscape:window-x="-11"
     inkscape:window-y="-11"
     inkscape:window-maximized="1"
     inkscape:current-layer="layer1" /><defs
     id="defs349"><g
       id="g1877" /><g
       id="g1599" /></defs><g
     inkscape:label="Layer 1"
     inkscape:groupmode="layer"
     id="layer1"><g
       fill-rule="evenodd"
       clip-rule="evenodd"
       id="g406"
       transform="matrix(3.640333,0,0,3.640333,30.552252,-280.72479)"
       style="fill:#00629b;fill-opacity:1"><g
         id="g1133"
         transform="translate(0,9.6383934)"
         style="fill:#00629b;fill-opacity:1"><path
           id="path394"
           style="fill:#00629b;fill-opacity:1"
           d="m 30.423689,69.107772 c -0.465093,-0.0053 -0.929417,0.243684 -1.299167,0.527184 l -3.741927,4.869179 C 19.387601,81.935128 12.286682,88.868861 4.5406899,94.181856 3.9316905,94.662855 3.0194041,95.132001 2.8284043,95.918 c -0.2029998,0.708999 0.1652198,1.293106 0.6092194,1.738106 6.1989938,4.271994 12.1328603,9.341884 17.4078553,15.126874 0.937999,0.989 1.699062,1.96318 2.612061,2.89118 1.545998,2.053 3.359974,4.11892 4.778973,6.32392 0.444999,0.471 0.520132,1.22999 1.217131,1.45899 0.546,0.191 1.21776,0.318 1.738759,0 l 0.517053,-0.51999 c 6.415993,-9.092 14.555153,-17.25614 23.646144,-23.848132 1.397854,-1.180326 4.291457,-2.028569 1.609006,-4.387099 L 56.812628,94.67799 C 52.103409,91.470781 47.702537,87.832874 43.666693,83.811072 l -4.540057,-4.74204 c -1.837998,-2.042998 -3.625134,-4.299021 -5.324133,-6.453019 l -2.066901,-2.931052 c -0.252999,-0.150999 -0.571096,-0.403812 -0.850096,-0.478812 -0.15175,-0.0665 -0.306786,-0.0966 -0.461817,-0.09838 z m -0.160149,7.03413 c 1.374118,-0.02539 2.787608,0.812417 3.842919,1.710979 1.609999,1.229999 3.283135,2.62327 4.754134,4.043268 l 0.266043,0.151978 c 4.069996,3.779997 7.84884,7.974869 10.954837,12.411865 0.505999,0.774999 0.94999,1.649082 0.670991,2.678081 -1.038999,2.585998 -3.14492,4.651977 -4.982918,6.907977 -3.978996,4.28499 -8.175896,8.42889 -12.879891,11.73989 -0.950999,0.672 -2.231933,1.29321 -3.372932,0.76022 -3.459996,-1.811 -6.376278,-4.78029 -9.407275,-7.47928 -3.509997,-3.258 -7.036834,-7.05088 -9.697831,-11.01988 -0.394,-0.557 -0.5091349,-1.243023 -0.4961349,-1.977022 0.3429999,-1.368998 1.2812209,-2.498068 2.1682199,-3.651067 3.144997,-4.005996 6.99878,-7.808982 10.890777,-11.282978 0.088,-0.09 0.253201,-0.279036 0.392201,-0.367035 a 70.47,70.47 0 0 1 5.08489,-3.981824 c 0.570937,-0.44375 1.187371,-0.63363 1.81197,-0.645172 z" /><path
           id="path398"
           style="fill:#00629b;fill-opacity:1"
           d="m 30.54854,77.46264 c -0.441281,-0.004 -0.895114,0.122516 -1.360612,0.439266 -5.794988,4.005992 -11.372958,9.43197 -15.860948,14.971958 -0.913998,1.344998 -2.511111,2.626209 -1.788111,4.415207 0.519998,1.317996 1.687245,2.268051 2.435243,3.434049 4.397992,5.28698 9.596976,10.2189 15.021964,14.18788 2.383996,1.521 4.08301,-0.93788 5.934006,-2.06788 3.790992,-2.99 7.303067,-6.6292 10.625061,-10.16618 v -0.0879 c 1.329996,-1.611 2.7379,-3.194938 3.776898,-4.931934 0.458,-0.851998 0.228903,-2.018 -0.280097,-2.766 C 45.032952,89.071098 39.759873,83.924964 34.168885,79.423974 33.084387,78.662726 31.87238,77.47464 30.54854,77.46264 Z m -0.182701,4.091314 h 0.06308 a 357.585,357.585 0 0 0 3.233046,8.887935 l -2.230971,0.03824 -0.05099,0.265716 0.330103,7.975087 v 0.125178 c -0.824998,0.14 -1.836995,0.1008 -2.648993,0.0268 l -0.06406,-0.08988 0.368015,-8.214984 v -0.06406 c -0.620998,-0.062 -1.407081,-9.9e-5 -2.041081,-0.0621 L 29.8599,83.176033 Z m -6.021924,10.55904 c 0.861999,0.633999 1.761994,1.14094 2.648993,1.712939 -1.722998,0.455 -3.789756,0.850201 -4.588755,2.739199 0.138999,1.429999 1.762871,1.887758 2.88987,2.241758 4.069995,1.078999 8.469935,0.938244 12.374932,-0.481754 0.734999,-0.432 1.902203,-0.950243 1.800204,-2.016242 -0.127,-1.139999 -1.432019,-1.646842 -2.346018,-2.002841 a 9.482,9.482 0 0 0 -1.609006,0.369976 c -0.28,-0.787999 -0.520097,-1.586998 -0.850096,-2.346998 1.722998,0.456 3.447889,0.924971 5.235887,1.241971 v 0.03791 c -0.366999,0.039 -0.774886,0.167244 -1.128886,0.306244 v 0.06275 c 1.014999,0.506999 2.421917,1.342141 2.434917,2.67514 -0.24,1.611998 -2.002947,2.345958 -3.321945,2.851957 -5.322995,1.661997 -12.019031,1.585917 -17.064026,-0.633078 -0.912999,-0.445 -2.066857,-1.129021 -2.370857,-2.19502 -0.229,-1.948998 1.862034,-3.028987 3.284032,-3.738986 0.837,-0.367 1.685755,-0.77193 2.610754,-0.82493 z m 4.602155,9.016056 c 1.027999,0.101 1.914959,0.0638 2.851958,0.0248 l 0.06406,0.39318 0.368016,8.1519 c -1.229999,0.18 -2.534982,0.0791 -3.68898,-0.0229 0.215999,-2.93 0.253948,-5.63105 0.404947,-8.54705 z" /><path
           d="m 39.551,119.381 v -0.498 h 0.31 c 0.168,0 0.396,0.016 0.396,0.227 0,0.229 -0.117,0.271 -0.314,0.271 z m 0,0.349 h 0.209 l 0.475,0.867 h 0.524 l -0.528,-0.902 c 0.275,-0.023 0.497,-0.16 0.497,-0.539 0,-0.473 -0.314,-0.623 -0.847,-0.623 H 39.11 v 2.064 h 0.44 v -0.867 z m 2.243,-0.164 c 0,-1.213 -0.909,-1.918 -1.924,-1.918 -1.019,0 -1.928,0.705 -1.928,1.918 0,1.213 0.909,1.92 1.928,1.92 1.015,0 1.924,-0.707 1.924,-1.92 z m -0.553,0 c 0,0.883 -0.63,1.479 -1.371,1.479 v -0.006 c -0.76,0.006 -1.374,-0.59 -1.374,-1.473 0,-0.883 0.614,-1.471 1.374,-1.471 0.741,0.001 1.371,0.589 1.371,1.471 z"
           fill="#366db4"
           id="path404"
           style="fill:#00629b;fill-opacity:1" /></g></g></g></svg>
